<?xml version="1.0" encoding="UTF-8"?>
<svg id="Layer_2" data-name="Layer 2" xmlns="http://www.w3.org/2000/svg" xmlns:xlink="http://www.w3.org/1999/xlink" viewBox="0 0 1234.06 193.9">
  <defs>
    <style>
      .cls-1 {
        clip-path: url(#clippath);
      }

      .cls-2 {
        fill: none;
      }

      .cls-3 {
        fill: #ca3433;
      }
    </style>
    <clipPath id="clippath">
      <rect class="cls-2" width="1234.06" height="193.9"/>
    </clipPath>
  </defs>
  <g id="Layer_1-2" data-name="Layer 1">
    <g class="cls-1">
      <path class="cls-3" d="m1171.56,99.53c-10.22,0-15.34,8.34-15.34,25.02s5.11,25.02,15.34,25.02,15.39-8.34,15.39-25.02-5.13-25.02-15.39-25.02Zm-45.96,77.23c-11.31-12.51-16.97-29.82-16.97-51.94s5.66-39.43,16.97-51.94c11.35-12.51,26.63-18.77,45.85-18.77s34.45,6.25,45.69,18.77c11.24,12.51,16.86,29.82,16.86,51.94s-5.62,39.43-16.86,51.94c-11.24,12.51-26.47,18.77-45.69,18.77s-34.5-6.26-45.85-18.77Zm-104.8-72.88v87.29c0,1.27-6.53,1.9-19.58,1.9-18.13-.54-27.2-1.54-27.2-2.99v-88.11h-7.07c-4.71,0-7.8-3.99-9.25-11.96-.36-2.36-.54-4.71-.54-7.07,0-5.62,1.09-11.24,3.26-16.86,3.27-7.98,8.34-11.97,15.23-11.97s13.05,1.63,18.49,4.89c5.44,3.27,9.06,6.53,10.88,9.79,11.42-9.79,25.02-14.68,40.79-14.68s27.19,4.26,34.26,12.78c7.07,8.52,10.6,22.48,10.6,41.88v81.58c0,2.18-7.76,3.26-23.28,3.26s-23.22-1.09-23.22-3.26v-78.59c0-9.07-3.17-13.6-9.52-13.6-1.81,0-4.35.76-7.61,2.29-3.26,1.56-5.35,2.7-6.25,3.43ZM939.49,1.63v39.98c0,1.27-8.29,1.9-24.86,1.9s-24.91-.54-24.91-1.63V2.72c0-1.81,8.3-2.72,24.91-2.72s24.86.54,24.86,1.63Zm0,56.02v133.52c0,1.45-8.29,2.17-24.86,2.17s-24.91-.64-24.91-1.91V57.92c0-1.27,8.3-1.9,24.91-1.9s24.86.54,24.86,1.63Zm-75.6-50.03v179.21c0,3.81-8.52,5.71-25.56,5.71s-26.29-1.36-27.74-4.08l-45.41-84.85v84.57c0,3.26-8.38,4.9-25.13,4.9s-25.18-1.63-25.18-4.9V6.25c0-2.72,7.16-4.08,21.48-4.08,5.62,0,12.2.51,19.74,1.52,7.5.98,12.07,2.83,13.7,5.55l43.51,83.75V7.61c0-3.45,8.43-5.17,25.29-5.17s25.29,1.72,25.29,5.17Zm-264.82,99.26c0-7.62-3.72-11.42-11.15-11.42-3.45,0-6.4,1.05-8.86,3.15-2.43,2.07-3.64,5.1-3.64,9.09v8.43h14.68c5.98,0,8.97-3.08,8.97-9.25Zm33.99,78.59c-11.42,6.71-26.1,10.06-44.05,10.06s-33.09-6.13-45.41-18.38c-12.33-12.22-18.49-29.17-18.49-50.85s5.93-39.09,17.78-52.32c11.89-13.23,26.9-19.85,45.03-19.85s32.12,4.62,41.99,13.87c9.9,9.25,14.85,20.48,14.85,33.72,0,29.37-16.86,44.05-50.58,44.05h-18.76c0,5.44,1.48,9.19,4.46,11.26,3.01,2.1,7.42,3.15,13.22,3.15,12.69,0,24.75-2.9,36.17-8.7.18-.18,1,1.09,2.45,3.8,4.35,7.8,6.53,14.36,6.53,19.69s-1.72,8.86-5.17,10.5Zm-220,4.08l-35.08-131.89c-.54-1.45,7.94-2.18,25.46-2.18s26.22.45,26.22,1.36l19.58,92.46,14.68-91.1c.54-1.63,9.52-2.45,26.92-2.45s26.11.73,25.56,2.18l-38.34,132.98c-1.27,1.81-12.05,2.72-32.36,2.72s-31.18-1.36-32.63-4.08Zm-106.16-90.01c-10.26,0-15.39,8.34-15.39,25.02s5.13,25.02,15.39,25.02,15.34-8.34,15.34-25.02-5.11-25.02-15.34-25.02Zm-45.96,77.23c-11.35-12.51-17.02-29.82-17.02-51.94s5.67-39.43,17.02-51.94c11.31-12.51,26.58-18.77,45.79-18.77s34.45,6.25,45.69,18.77c11.24,12.51,16.86,29.82,16.86,51.94s-5.62,39.43-16.86,51.94c-11.24,12.51-26.47,18.77-45.69,18.77s-34.48-6.26-45.79-18.77ZM224.68,4.35v186.28c0,1.63-9.27,2.45-27.79,2.45-14.5-.18-21.75-.91-21.75-2.18V5.71c0-2.72,8.81-4.08,26.43-4.08,15.41.55,23.11,1.45,23.11,2.72ZM7.94,146.03h18.76V49.22H7.4c-3.08,0-5.26-3.9-6.53-11.69C.33,33.72.05,29.82.05,25.83s.27-7.89.82-11.69C2.14,6.34,4.32,2.45,7.4,2.45h91.37c3.08,0,5.16,3.9,6.25,11.69.73,3.81,1.09,7.7,1.09,11.69s-.36,7.89-1.09,11.7c-1.09,7.79-3.17,11.69-6.25,11.69h-18.22v96.81h19.04c3.08,0,5.25,3.9,6.52,11.69.73,3.81,1.09,7.7,1.09,11.69s-.36,7.89-1.09,11.7c-1.27,7.8-3.44,11.69-6.52,11.69H7.94c-3.08,0-5.17-3.89-6.25-11.69-.73-3.81-1.09-7.71-1.09-11.7s.36-7.88,1.09-11.69c1.09-7.8,3.17-11.69,6.25-11.69Z"/>
    </g>
  </g>
</svg>