<svg xmlns="http://www.w3.org/2000/svg" version="1.1" xmlns:xlink="http://www.w3.org/1999/xlink" xmlns:svgjs="http://svgjs.dev/svgjs" width="2000" height="1500" viewBox="0 0 2000 1500"><rect width="2000" height="1500" fill="#ca3433"></rect><g transform="matrix(0.75,0,0,0.75,249.09154779283585,322.73231265314143)"><svg viewBox="0 0 396 226" data-background-color="#ca3433" preserveAspectRatio="xMidYMid meet" height="1141" width="2000" xmlns="http://www.w3.org/2000/svg" xmlns:xlink="http://www.w3.org/1999/xlink"><g id="tight-bounds" transform="matrix(1,0,0,1,0.24008861730862918,-0.16038873457198122)"><svg viewBox="0 0 395.52 226.32077746914396" height="226.32077746914396" width="395.52"><g><svg viewBox="0 0 395.52 226.32077746914396" height="226.32077746914396" width="395.52"><g><svg viewBox="0 0 395.52 226.32077746914396" height="226.32077746914396" width="395.52"><g id="textblocktransform"><svg viewBox="0 0 395.52 226.32077746914396" height="226.32077746914396" width="395.52" id="textblock"><g><svg viewBox="0 0 395.52 161.7226083629114" height="161.7226083629114" width="395.52"><path d="M394.594 34.686C392.735 17.9 387.435 13.233 387.435 13.233 371.165-4.057 350.86-0.331 332.619 2.154 300.414 2.254 268.339 5.947 236.208 7.928 168.767 8.23 100.749 3.262 33.643 15.516 27.339 19.276-6.54 16.255 1.121 36.835 3.129 45.396 10.456 54.898 10.232 62.754 11.236 64.13 12.631 60.974 13.226 62.955 15.309 68.293 18.711 65.775 21.501 68.931 17.614 77.358 20.403 84.375 23.062 91.728 18.377 93.641 12.371 92.735 9.675 99.08 9.396 103.68 7.89 102.807 6.235 102.606 5.026 102.471 2.59 102.975 2.999 104.419 4.394 109.354-1.594 112.208 2.162 117.042-0.422 122.28 3.948 126.812 3.353 132.486 3.278 133.628 3.687 134.601 4.338 134.87 7.22 136.313 3.018 139.134 3.464 142.189 33.029 163.071 65.104 148.635 95.394 158.237 103.259 151.522 97.346 160.621 100.489 159.211 102.943 157.565 104.728 164.381 107.499 160.52 107.927 159.412 107.276 156.793 108.8 157.297 109.6 157.565 110.307 157.498 110.418 155.954 110.586 153.637 109.117 155.081 108.726 153.872 112.947 147.762 111.906 162.299 115.866 161.695 115.68 159.916 114.528 157.364 116.889 157.7 119.232 155.148 119.306 153.033 121.389 158.774 121.463 160.016 121.835 160.889 122.43 161.494 128.938 155.249 135.409 163.709 142.233 160.889 146.417 157.8 150.433 162.568 154.672 161.393 156.16 160.453 157.666 158.774 159.098 161.594 176.632 162.199 195.319 159.681 211.943 161.695 256.364 157.935 303.836 163.239 350.674 158.27 361.719 156.357 373.192 153.637 383.958 151.455 383.958 151.455 392.679 145.479 392.679 118.62S394.538 95.119 394.817 73.732C395.096 52.346 396.398 51.473 394.538 34.686Z" opacity="1" fill="#ffffff" data-fill-palette-color="tertiary"></path><g transform="matrix(1,0,0,1,55.76832,26.068561146666667)"><svg width="283.98335999999995" viewBox="3.25 -37.7 98.94 38.190000000000005" height="109.58548606957807" data-palette-color="#ca3433"><path d="M31.25-35.01L31.25 0 23.75 0 10.25-23.05 10.25 0 3.25 0 3.25-35.01 10.74-35.01 24.24-11.94 24.24-35.01 31.25-35.01ZM44.89-33.25L44.89-33.25Q44.89-32.32 44.54-31.52 44.19-30.71 43.58-30.11 42.97-29.52 42.15-29.16 41.33-28.81 40.4-28.81L40.4-28.81Q39.48-28.81 38.66-29.16 37.84-29.52 37.24-30.11 36.64-30.71 36.29-31.52 35.94-32.32 35.94-33.25L35.94-33.25Q35.94-34.16 36.29-34.97 36.64-35.79 37.24-36.39 37.84-36.99 38.66-37.34 39.48-37.7 40.4-37.7L40.4-37.7Q41.33-37.7 42.15-37.34 42.97-36.99 43.58-36.39 44.19-35.79 44.54-34.97 44.89-34.16 44.89-33.25ZM43.75-26.15L43.75 0 37.03 0 37.03-26.15 43.75-26.15ZM55.49-14.94L55.49 0 48.82 0 48.82-26.15 50.43-26.15 52.63-23.61Q54.24-25.07 56.28-25.87 58.32-26.66 60.54-26.66L60.54-26.66Q62.93-26.66 65.06-25.74 67.18-24.83 68.77-23.23 70.36-21.63 71.27-19.49 72.19-17.36 72.19-14.94L72.19-14.94 72.19 0 65.52 0 65.52-14.94Q65.52-15.97 65.13-16.88 64.74-17.8 64.06-18.48 63.37-19.17 62.47-19.56 61.57-19.95 60.54-19.95L60.54-19.95Q59.49-19.95 58.56-19.56 57.64-19.17 56.95-18.48 56.27-17.8 55.88-16.88 55.49-15.97 55.49-14.94L55.49-14.94ZM102.19-13.31L102.19-13.31Q102.19-10.38 101.14-7.85 100.09-5.32 98.28-3.48 96.48-1.64 94.05-0.57 91.62 0.49 88.84 0.49L88.84 0.49Q86.08 0.49 83.65-0.57 81.22-1.64 79.4-3.48 77.58-5.32 76.53-7.85 75.48-10.38 75.48-13.31L75.48-13.31Q75.48-16.28 76.53-18.82 77.58-21.36 79.4-23.21 81.22-25.05 83.65-26.1 86.08-27.15 88.84-27.15L88.84-27.15Q91.62-27.15 94.05-26.16 96.48-25.17 98.28-23.35 100.09-21.53 101.14-18.98 102.19-16.43 102.19-13.31ZM95.48-13.31L95.48-13.31Q95.48-14.92 94.95-16.22 94.43-17.53 93.52-18.47 92.62-19.41 91.41-19.91 90.2-20.41 88.84-20.41L88.84-20.41Q87.47-20.41 86.26-19.91 85.05-19.41 84.16-18.47 83.27-17.53 82.76-16.22 82.24-14.92 82.24-13.31L82.24-13.31Q82.24-11.79 82.76-10.5 83.27-9.2 84.16-8.25 85.05-7.3 86.26-6.75 87.47-6.2 88.84-6.2L88.84-6.2Q90.2-6.2 91.41-6.71 92.62-7.23 93.52-8.15 94.43-9.08 94.95-10.4 95.48-11.72 95.48-13.31Z" opacity="1" transform="matrix(1,0,0,1,0,0)" fill="#ca3433" class="wordmark-text-0" data-fill-palette-color="quaternary" id="text-0"></path></svg></g></svg></g><g transform="matrix(1,0,0,1,75.54432,187.5931115722731)"><svg viewBox="0 0 244.43135999999998 38.72766589687087" height="38.72766589687087" width="244.43135999999998"><g transform="matrix(1,0,0,1,0,0)"><svg width="244.43135999999998" viewBox="0.9 -35.45 226.88 35.95" height="38.72766589687087" data-palette-color="#ffffff"><path d="M2.35-8.6L5.8-8.6 5.8-26.4 2.25-26.4Q1.4-26.4 1.05-28.55L1.05-28.55Q0.9-29.6 0.9-30.7 0.9-31.8 1.05-32.85L1.05-32.85Q1.4-35 2.25-35L2.25-35 19.05-35Q19.9-35 20.2-32.85L20.2-32.85Q20.4-31.8 20.4-30.7 20.4-29.6 20.2-28.55L20.2-28.55Q19.9-26.4 19.05-26.4L19.05-26.4 15.7-26.4 15.7-8.6 19.2-8.6Q20.05-8.6 20.4-6.45L20.4-6.45Q20.6-5.4 20.6-4.3 20.6-3.2 20.4-2.15L20.4-2.15Q20.05 0 19.2 0L19.2 0 2.35 0Q1.5 0 1.2-2.15L1.2-2.15Q1-3.2 1-4.3 1-5.4 1.2-6.45L1.2-6.45Q1.5-8.6 2.35-8.6L2.35-8.6ZM42.2-34.65L42.2-0.4Q42.2 0.05 37.09 0.05L37.09 0.05Q33.09 0 33.09-0.35L33.09-0.35 33.09-34.4Q33.09-35.15 37.95-35.15L37.95-35.15Q42.2-35 42.2-34.65L42.2-34.65ZM48.87-2.95Q45.74-6.4 45.74-12.5 45.74-18.6 48.87-22.05 51.99-25.5 57.29-25.5 62.59-25.5 65.69-22.05 68.79-18.6 68.79-12.5 68.79-6.4 65.69-2.95 62.59 0.5 57.29 0.5 51.99 0.5 48.87-2.95ZM57.32-17.15Q54.49-17.15 54.49-12.55 54.49-7.95 57.32-7.95 60.14-7.95 60.14-12.55 60.14-17.15 57.32-17.15ZM76.84-0.6L70.39-24.85Q70.24-25.25 75.07-25.25 79.89-25.25 79.89-25L79.89-25 83.49-8 86.19-24.75Q86.34-25.2 91.14-25.2L91.14-25.2Q95.99-25.2 95.84-24.8L95.84-24.8 88.79-0.35Q88.44 0.15 82.84 0.15 77.24 0.15 76.84-0.6L76.84-0.6ZM117.29-1.35L117.29-1.35Q114.14 0.5 109.19 0.5 104.24 0.5 100.84-2.88 97.44-6.25 97.44-12.23 97.44-18.2 100.71-21.85 103.99-25.5 108.99-25.5 113.99-25.5 116.71-22.95 119.44-20.4 119.44-16.75L119.44-16.75Q119.44-8.65 110.14-8.65L110.14-8.65 106.69-8.65Q106.69-7.15 107.51-6.58 108.34-6 109.94-6L109.94-6Q113.44-6 116.59-7.6L116.59-7.6Q116.64-7.65 117.04-6.9L117.04-6.9Q118.24-4.75 118.24-3.28 118.24-1.8 117.29-1.35ZM111.04-15.8L111.04-15.8Q111.04-17.9 108.99-17.9L108.99-17.9Q108.04-17.9 107.36-17.32 106.69-16.75 106.69-15.65L106.69-15.65 106.69-14.1 109.39-14.1Q111.04-14.1 111.04-15.8ZM159.73-34.05L159.73-1.1Q159.73-0.05 155.03-0.05 150.33-0.05 149.93-0.8L149.93-0.8 141.58-16.4 141.58-0.85Q141.58 0.05 136.96 0.05 132.33 0.05 132.33-0.85L132.33-0.85 132.33-34.3Q132.33-35.05 136.28-35.05L136.28-35.05Q137.83-35.05 139.91-34.77 141.98-34.5 142.43-33.75L142.43-33.75 150.43-18.35 150.43-34.05Q150.43-35 155.08-35 159.73-35 159.73-34.05L159.73-34.05ZM173.63-24.85L173.63-0.3Q173.63 0.1 169.06 0.1 164.48 0.1 164.48-0.25L164.48-0.25 164.48-24.8Q164.48-25.15 169.06-25.15 173.63-25.15 173.63-24.85L173.63-24.85ZM173.63-35.15L173.63-27.8Q173.63-27.45 169.06-27.45 164.48-27.45 164.48-27.75L164.48-27.75 164.48-34.95Q164.48-35.45 169.06-35.45 173.63-35.45 173.63-35.15L173.63-35.15ZM188.58-16.35L188.58-0.3Q188.58 0.05 184.98 0.05L184.98 0.05Q179.98-0.1 179.98-0.5L179.98-0.5 179.98-16.7 178.68-16.7Q177.38-16.7 176.98-18.9L176.98-18.9Q176.88-19.55 176.88-20.2L176.88-20.2Q176.88-21.75 177.48-23.3L177.48-23.3Q178.38-25.5 180.28-25.5 182.18-25.5 183.68-24.6 185.18-23.7 185.68-22.8L185.68-22.8Q188.83-25.5 193.18-25.5 197.53-25.5 199.48-23.15 201.43-20.8 201.43-15.45L201.43-15.45 201.43-0.45Q201.43 0.15 197.15 0.15 192.88 0.15 192.88-0.45L192.88-0.45 192.88-14.9Q192.88-17.4 191.13-17.4L191.13-17.4Q190.63-17.4 189.73-16.98 188.83-16.55 188.58-16.35L188.58-16.35ZM207.85-2.95Q204.73-6.4 204.73-12.5 204.73-18.6 207.85-22.05 210.98-25.5 216.28-25.5 221.58-25.5 224.68-22.05 227.78-18.6 227.78-12.5 227.78-6.4 224.68-2.95 221.58 0.5 216.28 0.5 210.98 0.5 207.85-2.95ZM216.3-17.15Q213.48-17.15 213.48-12.55 213.48-7.95 216.3-7.95 219.13-7.95 219.13-12.55 219.13-17.15 216.3-17.15Z" opacity="1" transform="matrix(1,0,0,1,0,0)" fill="#ffffff" class="slogan-text-1" data-fill-palette-color="secondary" id="text-1"></path></svg></g></svg></g></svg></g></svg></g><g></g></svg></g><defs></defs></svg><rect width="395.52" height="226.32077746914396" fill="none" stroke="none" visibility="hidden"></rect></g></svg></g></svg>